<svg width="42" height="26" viewBox="0 0 42 26" fill="none" xmlns="http://www.w3.org/2000/svg">
<path d="M4.84085 18.8781L3.67786 11.9356C3.48869 10.8063 3.39411 10.2417 3.68537 9.87083C3.97662 9.5 4.51468 9.5 5.59079 9.5H19.4092C20.4853 9.5 21.0234 9.5 21.3146 9.87083C21.6059 10.2417 21.5113 10.8063 21.3221 11.9356L20.1591 18.8781C19.749 21.3264 19.544 22.5505 18.7319 23.2752C17.9199 24 16.7534 24 14.4204 24H10.5796C8.24664 24 7.08014 24 6.26809 23.2752C5.45603 22.5505 5.25097 21.3264 4.84085 18.8781Z" stroke="#848787" stroke-width="1.5"/>
<path d="M7.5 9.5V9C7.5 6.23858 9.73858 4 12.5 4C15.2614 4 17.5 6.23858 17.5 9V9.5" stroke="#848787" stroke-width="1.5"/>
<path d="M5 19.5H20" stroke="#848787" stroke-width="1.5"/>
<rect x="21.5" width="20" height="20" rx="10" fill="#A91818"/>
<path d="M32.415 15H31.3076V7.91797C31.3076 7.64909 31.3076 7.41895 31.3076 7.22754C31.3122 7.03158 31.3167 6.85384 31.3213 6.69434C31.3304 6.53027 31.3418 6.36393 31.3555 6.19531C31.2142 6.34115 31.082 6.46647 30.959 6.57129C30.8359 6.67155 30.6833 6.79688 30.501 6.94727L29.3594 7.86328L28.7646 7.09082L31.4717 5.00586H32.415V15Z" fill="white"/>
</svg>
