<svg width="50" height="50" viewBox="0 0 50 50" fill="none" xmlns="http://www.w3.org/2000/svg">
<rect width="50" height="50" rx="25" fill="#E0E0E0"/>
<path d="M31.1604 18V17C31.1604 16.0572 31.1604 15.5858 30.8596 15.2929C30.5589 15 30.0749 15 29.1069 15H20.8931C19.9251 15 19.4411 15 19.1404 15.2929C18.8397 15.5858 18.8397 16.0572 18.8397 17V18M31.1604 18L33.8152 32.6524C34.0124 33.7411 34.1111 34.2855 33.8033 34.6427C33.4956 35 32.928 35 31.793 35H30.6235C29.8926 35 29.5272 35 29.2552 34.8044C28.9833 34.6088 28.8758 34.2686 28.6609 33.5882L26.9626 28.2126C26.1598 25.6711 25.7583 24.4004 25 24.4004C24.2417 24.4004 23.8402 25.6711 23.0374 28.2126L21.3391 33.5882C21.1242 34.2686 21.0167 34.6088 20.7448 34.8044C20.4728 35 20.1074 35 19.3765 35H18.207C17.072 35 16.5044 35 16.1967 34.6427C15.8889 34.2855 15.9876 33.7411 16.1848 32.6524L18.8397 18M31.1604 18H18.8397" stroke="#B7B7B7" stroke-width="1.5" stroke-linecap="round"/>
<path d="M23 20.7778L25 18L28 23" stroke="#B7B7B7" stroke-width="1.5" stroke-linecap="round" stroke-linejoin="round"/>
</svg>
