<svg width="50" height="50" viewBox="0 0 50 50" fill="none" xmlns="http://www.w3.org/2000/svg">
<rect width="50" height="50" rx="25" fill="#E0E0E0"/>
<path d="M19.2687 20.9659C18.551 21.6578 18.1921 22.0038 17.7549 22C16.7321 21.991 14.9265 20.0041 15.0023 18.986C15.033 18.5739 15.3993 18.265 16.1318 17.647L18.3292 15.7935C18.979 15.2454 19.8732 15.2235 20.6853 15.067C21.0092 15.0045 21.1712 14.9733 21.3152 15.0289C21.7794 15.2084 22.1622 16.0528 22.4391 16.4341C23.604 18.0384 24.1864 18.8405 25.0003 18.8405C25.8141 18.8405 26.3966 18.0384 27.5615 16.4341C27.8384 16.0528 28.2211 15.2084 28.6854 15.0289C28.8294 14.9733 28.9913 15.0045 29.3153 15.067C30.1591 15.2296 30.9924 15.2208 31.6714 15.7935L33.8687 17.647C34.6013 18.265 34.9676 18.5739 34.9982 18.986C35.0741 20.0041 33.2685 21.991 32.2456 22C31.8084 22.0038 31.4496 21.6578 30.7319 20.9659" stroke="#B7B7B7" stroke-width="1.5" stroke-linecap="round" stroke-linejoin="round"/>
<path d="M19 20C20.5 22 19.9559 24.1815 19.598 26.2178C19.22 28.3682 18.5829 29.6762 18.2196 31.4412C17.9702 32.6531 17.8454 33.2591 18.3336 33.7716C19.7118 35.2184 29.9342 35.5901 31.6664 33.7716C32.1546 33.2591 32.0298 32.6531 31.7804 31.4412C31.4171 29.6762 30.78 28.3682 30.402 26.2178C30.0441 24.1815 29.5 22 31 20" stroke="#B7B7B7" stroke-width="1.5" stroke-linecap="round" stroke-linejoin="round"/>
</svg>
