<svg width="50" height="50" viewBox="0 0 50 50" fill="none" xmlns="http://www.w3.org/2000/svg">
<rect width="50" height="50" rx="25" fill="#E0E0E0"/>
<path d="M23.5 31.3002V18.8144C23.5 17.2271 23.0436 15.9208 21.1171 16.0037C19.5086 16.0729 18.0014 16.8968 16.8045 17.8937C14.6629 19.6775 14.7258 21.7597 15.4687 24.2023L17.8529 32.0408C18.2056 33.2004 19.3355 34 20.6212 34C22.2111 34 23.5 32.7913 23.5 31.3002Z" stroke="#B7B7B7" stroke-width="1.5" stroke-linecap="round" stroke-linejoin="round"/>
<path d="M26.5 31.3002V18.8144C26.5 17.2271 26.9564 15.9208 28.8829 16.0037C30.4914 16.0729 31.9986 16.8968 33.1955 17.8937C35.3371 19.6775 35.2742 21.7597 34.5313 24.2023L32.1471 32.0408C31.7944 33.2004 30.6645 34 29.3788 34C27.7889 34 26.5 32.7913 26.5 31.3002Z" stroke="#B7B7B7" stroke-width="1.5" stroke-linecap="round" stroke-linejoin="round"/>
<path d="M16 26C16 25 16.7 22.3 19.5 21.5M19.5 21.5C22 22 23 23 23.5 23.5M19.5 21.5V20" stroke="#B7B7B7" stroke-width="1.5" stroke-linecap="round" stroke-linejoin="round"/>
<path d="M34 26C34 25 33.3 22.3 30.5 21.5M30.5 21.5C28 22 27 23 26.5 23.5M30.5 21.5V20" stroke="#B7B7B7" stroke-width="1.5" stroke-linecap="round" stroke-linejoin="round"/>
</svg>
