<svg width="50" height="50" viewBox="0 0 50 50" fill="none" xmlns="http://www.w3.org/2000/svg">
<rect width="50" height="50" rx="25" fill="#E0E0E0"/>
<path d="M21 15C20 15 20.1847 17.4175 18.7994 18.4616C17.7677 19.2392 15.8928 18.4138 15.1276 19.7208C14.8946 20.1188 15.0097 20.6447 15.2399 21.6962L17.2293 30.7845C17.6194 32.5668 17.859 34.7429 20 35H30C32.141 34.7429 32.3806 32.5668 32.7707 30.7845L34.7601 21.6962C34.9903 20.6447 35.1054 20.1188 34.8724 19.7208C34.1072 18.4138 32.2323 19.2392 31.2006 18.4616C29.8153 17.4175 30 15 29 15" stroke="#B7B7B7" stroke-width="1.5" stroke-linecap="round" stroke-linejoin="round"/>
<path d="M25.009 24H25M25.009 27.5H25M25.009 31H25" stroke="#B7B7B7" stroke-width="2" stroke-linecap="round" stroke-linejoin="round"/>
<path d="M20.7242 15.1188C21.6558 14.5955 22.9413 15.941 23.6046 16.4439C24.5109 17.131 24.9641 17.4746 24.9974 17.9281C25.0009 17.976 25.0009 18.024 24.9974 18.0719C24.9641 18.5254 24.5109 18.869 23.6046 19.5561C22.9413 20.059 21.6558 21.4045 20.7242 20.8812C19.7586 20.3388 19.7586 15.6611 20.7242 15.1188Z" stroke="#B7B7B7" stroke-width="1.5"/>
<path d="M29.2758 15.1188C28.3442 14.5955 27.0587 15.941 26.3954 16.4439C25.4891 17.131 25.0359 17.4746 25.0026 17.9281C24.9991 17.976 24.9991 18.024 25.0026 18.0719C25.0359 18.5254 25.4891 18.869 26.3954 19.5561C27.0587 20.059 28.3442 21.4045 29.2758 20.8812C30.2414 20.3388 30.2414 15.6611 29.2758 15.1188Z" stroke="#B7B7B7" stroke-width="1.5"/>
</svg>
