<svg width="50" height="50" viewBox="0 0 50 50" fill="none" xmlns="http://www.w3.org/2000/svg">
<rect width="50" height="50" rx="25" fill="#A91818"/>
<path d="M18.9976 25V30.6841C18.9976 32.4952 18.9976 33.4008 19.5828 33.9635C20.2479 34.6028 22.6154 34.9785 24.9925 34.9991C27.3085 35.0192 29.6337 34.7022 30.4021 33.9635C30.9874 33.4008 30.9874 32.4952 30.9874 30.6841V25" stroke="white" stroke-width="1.5" stroke-linecap="round" stroke-linejoin="round"/>
<path d="M18.7223 27.0221C17.8566 26.7084 16.2297 26.4395 15.4959 25.7033C14.4859 24.69 15.1386 23.3202 16.3771 20.7389C16.9345 19.5771 18.0009 18.7225 19.2436 18.3845C19.4124 18.3387 19.5588 18.2332 19.6559 18.0876L20.9393 16.0887C20.9764 16.0331 21.0234 15.9854 21.0806 15.9509C21.6591 15.602 23.0921 15 24.9925 15C26.8929 15 28.2321 15.602 28.8105 15.9509C28.8677 15.9854 28.9148 16.0331 28.9518 16.0887L30.2721 18.0687C30.3692 18.2143 30.5156 18.3198 30.6844 18.3657C31.9271 18.7036 32.9451 19.4501 33.5026 20.6119C34.8937 23.1413 35.5105 24.6707 34.5005 25.684C33.7667 26.4202 32.1174 26.7116 31.2517 27.0253" stroke="white" stroke-width="1.5" stroke-linecap="round" stroke-linejoin="round"/>
<path d="M19.501 18.5L23.7345 21.7926C24.3409 22.2642 24.644 22.5 25.001 22.5C25.358 22.5 25.6611 22.2642 26.2675 21.7926L30.501 18.5" stroke="white" stroke-width="1.5" stroke-linecap="round" stroke-linejoin="round"/>
<path d="M22.501 16L24.001 22M27.501 16L26.001 22" stroke="white" stroke-width="1.5" stroke-linecap="round" stroke-linejoin="round"/>
</svg>
